<svg width="56" height="56" viewBox="0 0 56 56" fill="none" xmlns="http://www.w3.org/2000/svg">
<path d="M32.6671 29.5124L38.1971 23.9824C38.8831 23.2987 39.2238 22.9557 39.4058 22.587C39.7558 21.887 39.7558 21.0634 39.4058 20.361C39.2238 19.9924 38.8831 19.6517 38.1995 18.968C37.5158 18.2844 37.1728 17.9437 36.8065 17.7617C36.4607 17.5895 36.0797 17.4999 35.6935 17.4999C35.3072 17.4999 34.9262 17.5895 34.5805 17.7617C34.2118 17.9437 33.8688 18.2844 33.1851 18.968L27.6551 24.5004M32.6671 29.5124L13.4825 48.6994C12.7988 49.383 12.4558 49.7237 12.0871 49.9057C11.3871 50.2557 10.5635 50.2557 9.86114 49.9057C9.49248 49.7237 9.15181 49.383 8.46814 48.6994C7.78448 48.0157 7.44381 47.6727 7.26181 47.3064C7.08962 46.9606 7 46.5796 7 46.1934C7 45.8071 7.08962 45.4261 7.26181 45.0804C7.44381 44.7117 7.78448 44.3687 8.46814 43.685L27.6551 24.5004M32.6671 29.5124L27.6551 24.5004" stroke="black" stroke-width="3.5" stroke-linecap="round" stroke-linejoin="round"/>
<path d="M45.5 5.83325L45.2433 6.53092C44.9027 7.44325 44.7347 7.90059 44.4033 8.23425C44.0673 8.56792 43.61 8.73825 42.6977 9.07425L42 9.33325L42.6977 9.58992C43.61 9.92825 44.0673 10.0986 44.401 10.4299C44.7347 10.7659 44.9027 11.2233 45.241 12.1356L45.5 12.8333L45.7567 12.1356C46.0973 11.2233 46.2653 10.7659 46.5967 10.4323C46.9327 10.0986 47.39 9.92825 48.3023 9.59225L49 9.33325L48.3023 9.07659C47.39 8.73825 46.9327 8.56792 46.599 8.23659C46.2653 7.90059 46.0973 7.44325 45.759 6.53092L45.5 5.83325ZM45.5 29.1666L45.2433 29.8643C44.9027 30.7766 44.7347 31.2339 44.4033 31.5676C44.0673 31.9013 43.61 32.0716 42.6977 32.4076L42 32.6666L42.6977 32.9233C43.61 33.2639 44.0673 33.4319 44.401 33.7633C44.7347 34.0993 44.9027 34.5566 45.241 35.4689L45.5 36.1666L45.7567 35.4689C46.0973 34.5566 46.2653 34.0993 46.5967 33.7656C46.9327 33.4319 47.39 33.2616 48.3023 32.9256L49 32.6666L48.3023 32.4099C47.39 32.0693 46.9327 31.9013 46.599 31.5699C46.2653 31.2339 46.0973 30.7766 45.759 29.8643L45.5 29.1666ZM24.5 5.83325L24.2433 6.53092C23.9027 7.44325 23.7347 7.90059 23.4033 8.23425C23.0673 8.56792 22.61 8.73825 21.6977 9.07425L21 9.33325L21.6977 9.58992C22.61 9.92825 23.0673 10.0986 23.401 10.4299C23.7347 10.7659 23.905 11.2233 24.241 12.1356L24.5 12.8333L24.7567 12.1356C25.0973 11.2233 25.2653 10.7659 25.5967 10.4323C25.9327 10.0986 26.39 9.92825 27.3023 9.59225L28 9.33325L27.3023 9.07659C26.39 8.73825 25.9327 8.56792 25.599 8.23659C25.2653 7.90059 25.095 7.44325 24.759 6.53092L24.5 5.83325Z" stroke="black" stroke-width="3.5" stroke-linejoin="round"/>
</svg>
