<svg width="56" height="56" viewBox="0 0 56 56" fill="none" xmlns="http://www.w3.org/2000/svg">
<path d="M32.6671 29.5125L38.1971 23.9825C38.8831 23.2988 39.2238 22.9558 39.4058 22.5871C39.7558 21.8871 39.7558 21.0635 39.4058 20.3611C39.2238 19.9925 38.8831 19.6518 38.1995 18.9681C37.5158 18.2845 37.1728 17.9438 36.8065 17.7618C36.4607 17.5896 36.0797 17.5 35.6935 17.5C35.3072 17.5 34.9262 17.5896 34.5805 17.7618C34.2118 17.9438 33.8688 18.2845 33.1851 18.9681L27.6551 24.5005M32.6671 29.5125L13.4825 48.6995C12.7988 49.3831 12.4558 49.7238 12.0871 49.9058C11.3871 50.2558 10.5635 50.2558 9.86114 49.9058C9.49248 49.7238 9.15181 49.3831 8.46814 48.6995C7.78448 48.0158 7.44381 47.6728 7.26181 47.3065C7.08962 46.9607 7 46.5797 7 46.1935C7 45.8072 7.08962 45.4262 7.26181 45.0805C7.44381 44.7118 7.78448 44.3688 8.46814 43.6851L27.6551 24.5005M32.6671 29.5125L27.6551 24.5005" stroke="url(#paint0_linear_1586_1520)" stroke-width="3.5" stroke-linecap="round" stroke-linejoin="round"/>
<path d="M45.5 5.83398L45.2433 6.53165C44.9027 7.44398 44.7347 7.90132 44.4033 8.23498C44.0673 8.56865 43.61 8.73898 42.6977 9.07498L42 9.33398L42.6977 9.59065C43.61 9.92898 44.0673 10.0993 44.401 10.4307C44.7347 10.7667 44.9027 11.224 45.241 12.1363L45.5 12.834L45.7567 12.1363C46.0973 11.224 46.2653 10.7667 46.5967 10.433C46.9327 10.0993 47.39 9.92898 48.3023 9.59298L49 9.33398L48.3023 9.07732C47.39 8.73898 46.9327 8.56865 46.599 8.23732C46.2653 7.90132 46.0973 7.44398 45.759 6.53165L45.5 5.83398ZM45.5 29.1673L45.2433 29.865C44.9027 30.7773 44.7347 31.2347 44.4033 31.5683C44.0673 31.902 43.61 32.0723 42.6977 32.4083L42 32.6673L42.6977 32.924C43.61 33.2647 44.0673 33.4327 44.401 33.764C44.7347 34.1 44.9027 34.5573 45.241 35.4697L45.5 36.1673L45.7567 35.4697C46.0973 34.5573 46.2653 34.1 46.5967 33.7663C46.9327 33.4327 47.39 33.2623 48.3023 32.9263L49 32.6673L48.3023 32.4107C47.39 32.07 46.9327 31.902 46.599 31.5707C46.2653 31.2347 46.0973 30.7773 45.759 29.865L45.5 29.1673ZM24.5 5.83398L24.2433 6.53165C23.9027 7.44398 23.7347 7.90132 23.4033 8.23498C23.0673 8.56865 22.61 8.73898 21.6977 9.07498L21 9.33398L21.6977 9.59065C22.61 9.92898 23.0673 10.0993 23.401 10.4307C23.7347 10.7667 23.905 11.224 24.241 12.1363L24.5 12.834L24.7567 12.1363C25.0973 11.224 25.2653 10.7667 25.5967 10.433C25.9327 10.0993 26.39 9.92898 27.3023 9.59298L28 9.33398L27.3023 9.07732C26.39 8.73898 25.9327 8.56865 25.599 8.23732C25.2653 7.90132 25.095 7.44398 24.759 6.53165L24.5 5.83398Z" stroke="url(#paint1_linear_1586_1520)" stroke-width="3.5" stroke-linejoin="round"/>
<defs>
<linearGradient id="paint0_linear_1586_1520" x1="7" y1="17.5" x2="39.6683" y2="17.5" gradientUnits="userSpaceOnUse">
<stop stop-color="#8E2DE2"/>
<stop offset="0.5" stop-color="#6D0FE8"/>
<stop offset="1" stop-color="#4A00E0"/>
</linearGradient>
<linearGradient id="paint1_linear_1586_1520" x1="21" y1="5.83398" x2="49" y2="5.83398" gradientUnits="userSpaceOnUse">
<stop stop-color="#8E2DE2"/>
<stop offset="0.5" stop-color="#6D0FE8"/>
<stop offset="1" stop-color="#4A00E0"/>
</linearGradient>
</defs>
</svg>
