<svg width="600" height="600" viewBox="0 0 600 600" fill="none" xmlns="http://www.w3.org/2000/svg">
<g clip-path="url(#clip0_1040_17107)">
<path d="M51.6599 300.21C61.2699 273.19 105.4 257.49 89.1199 225.65C87.6499 222.17 86.1399 218.9 85.0999 216.06C81.0599 205.07 84.3699 195.59 88.0899 185.85C92.7099 173.75 94.8799 156.93 107.53 149.6C115.96 144.72 126.3 142.02 136.14 138.4C137.12 138.04 138.1 137.66 139.02 137.26C145.43 128.47 152.83 126.35 161.59 122.18C162.33 121.51 163 120.82 163.67 120.11C181.96 94.4599 211.45 89.4499 240.36 82.3799C246.14 80.9599 251.9 79.4699 257.54 77.6999C262.83 75.5999 267.07 72.5099 271.49 69.1399" stroke="#5594D2" stroke-linecap="round" stroke-linejoin="round"/>
<path d="M50.9099 303.48C62.7699 274.68 108.39 253 86.4199 218.59C84.7299 212.91 84.7199 207.63 85.5699 202.51C86.4199 197.39 88.1299 192.44 89.8799 187.42C94.1899 175.02 95.9899 157.79 108.57 150.17C116.21 145.54 125.36 142.73 134.3 139.42C135.29 139.05 136.28 138.68 137.27 138.29C139.08 137.97 141.2 136.91 142.26 135.85C146.49 126.33 157.07 127.39 163.01 121.42C163.7 120.7 164.4 119.98 165.09 119.26C183.08 95.1801 211.79 89.7001 239.83 82.4201C245.44 80.9601 251.02 79.4401 256.48 77.6701C262.83 75.5701 269.18 71.5001 274.23 67.8101" stroke="#5594D2" stroke-linecap="round" stroke-linejoin="round"/>
<path d="M50.5 306.76C60.53 287.4 75.49 269.45 89.7 252.25C97.18 243.28 90.45 232.06 88.4 222.63C86.45 216.48 86.48 210.65 87.45 204.98C88.42 199.31 90.32 193.81 92.12 188.31C96.16 175.93 97.73 158.64 109.84 150.82C117.65 145.77 126.93 142.65 136 139.01C136.91 138.65 137.81 138.28 138.69 137.89C145.44 129.52 153.9 126.35 162.83 122.22C163.45 121.6 164.05 120.96 164.66 120.33C176.11 109.43 185.63 97.8001 200.43 92.5101C217.35 86.1601 236.15 84.9901 253.13 79.1901C257.37 77.7401 261.5 76.0101 265.46 73.8801C269.42 71.8301 273.21 69.4501 276.77 66.5801" stroke="#5594D2" stroke-linecap="round" stroke-linejoin="round"/>
<path d="M50.5601 310.85C55.2901 286.65 76.9801 270.94 90.4401 251.5C95.6801 244.77 94.9301 233.55 90.1601 225.43C88.2901 219.27 88.3801 213.32 89.4001 207.51C90.4201 201.7 92.3701 196.03 94.0801 190.39C97.9501 177.64 99.1601 159.69 111.14 151.45C118.3 146.53 126.47 143.01 134.59 139.43C135.49 139.03 136.4 138.63 137.3 138.23C141.36 134.4 145.5 131.42 149.91 128.8C154.32 126.18 159 123.91 164.12 121.48C177.14 108.35 189.83 95.6601 207.81 90.3701C219.97 87.2001 233.19 85.6101 245.67 82.3501C251.91 80.7201 257.96 78.6701 263.61 75.8201C269.26 73.1001 274.5 69.7501 279.1 65.3301" stroke="#5594D2" stroke-linecap="round" stroke-linejoin="round"/>
<path d="M51.1101 314.38C55.2901 289.65 73.9901 272.44 89.6901 253.75C97.1701 244.78 92.6801 234.31 91.1301 224.34C90.2801 218.89 90.6701 213.85 91.7001 208.84C92.7201 203.83 94.3801 198.86 96.0101 193.57C99.9501 180.79 100.48 160.86 112.51 152.05C119.68 146.8 127.95 142.94 136.2 139C137.12 138.56 138.04 138.12 138.9 137.66C143.29 134.82 144.35 127.41 150.7 126.36C155.99 125.3 161.28 125.3 164.46 121.49C177.14 110.49 188.77 96.7399 205.69 91.4599C218.38 87.2299 232.66 85.91 246.07 82.7299C250.54 81.67 254.91 80.41 259.1 78.76C267.03 74.53 275.49 71.36 281.27 64.2" stroke="#5594D2" stroke-linecap="round" stroke-linejoin="round"/>
<path d="M51.96 317.17C55.3 289.65 76.24 271.7 91.94 248.51C95.68 241.78 94.93 235.05 93.51 227.39C92.74 222.01 93.2 216.84 94.28 211.67C95.36 206.49 97.05 201.31 98.57 195.86C102.28 182.54 102.12 162.01 114.15 152.64C120.39 147.78 127.55 143.97 134.83 140.22C135.74 139.75 136.65 139.28 137.56 138.82C144.37 129.52 153.88 126.35 163.5 122.56C164.3 121.9 165.06 121.2 165.79 120.48C184.07 97.1601 210.62 89.6101 238.54 83.4501C244.13 82.2201 249.77 81.0401 255.41 79.8101C265.99 77.6901 276.56 71.3501 283.32 63.0701" stroke="#5594D2" stroke-linecap="round" stroke-linejoin="round"/>
<path d="M52.99 319.32C54.55 293.38 72.5 273.94 88.2 255.24C93.44 248.51 97.92 239.53 96.42 230.43C95.37 225.54 95.89 220.27 97.06 214.84C98.23 209.41 100.06 203.81 101.44 198.22C104.83 184.44 103.93 163.13 115.96 153.22C122.08 148.17 129.14 144.1 136.34 140.09C137.24 139.59 138.14 139.09 139.03 138.58C144.37 129.51 152.83 126.33 162.41 123.5C163.32 122.9 164.13 122.24 164.9 121.54C178.23 109.41 190.92 95.6599 208.9 90.3699C222.65 87.1999 236.93 85.6099 250.17 81.8499C254.58 80.5999 258.88 79.0999 263.01 77.2299C271.31 73.4399 278.71 69.2099 285.24 62.1499" stroke="#5594D2" stroke-linecap="round" stroke-linejoin="round"/>
<path d="M54.1299 320.94C56.0399 291.88 76.2299 270.2 93.4399 248.51C96.4299 244.02 98.6799 238.79 99.3699 232.89C98.9699 227.49 99.6299 222.15 100.75 216.81C101.87 211.46 103.46 206.11 104.63 200.66C107.69 186.44 105.94 164.29 117.92 153.8C123.89 148.58 130.82 144.23 137.94 139.95C138.83 139.41 139.72 138.88 140.54 138.31C145.43 128.47 153.89 126.35 163.93 122.55C164.72 121.87 165.5 121.18 166.27 120.47C178.21 108.37 189.85 96.7401 205.71 92.5001C219.99 87.7401 235.32 85.6301 249.58 81.6201C254.33 80.2901 258.96 78.7401 263.4 76.8301C272.35 72.4001 280.81 69.2301 286.99 61.5601" stroke="#5594D2" stroke-linecap="round" stroke-linejoin="round"/>
<path d="M55.3301 322.08C57.5301 291.88 78.4701 267.95 97.9201 245.52C99.4201 242.53 100.91 239.54 101.21 236.07C101.67 230.73 102.9 225.08 104.31 219.57C105.72 214.06 107.35 208.69 108.21 203.88C111.19 187.26 109.34 166.12 120.17 154.3C124.93 149.1 131.41 144.6 138.39 140.12C139.26 139.56 140.14 139 140.94 138.4C143.18 132.9 146.94 130.15 151.21 128.13C155.48 126.1 160.26 124.8 164.53 122.2C182.98 99.2199 208.82 90.9799 237.12 84.5899C242.78 83.3099 248.54 82.1099 254.36 80.8699C268.11 78.7499 277.63 69.2399 288.6 61.3899" stroke="#5594D2" stroke-linecap="round" stroke-linejoin="round"/>
<path d="M56.55 322.91C59.79 294.13 76.24 268.7 94.94 248.51C97.93 245.52 100.18 241.78 102.07 237.81C103.67 232.54 105.37 226.95 107.02 221.44C108.67 215.93 110.34 210.49 111.39 205.47C114.93 188.51 111.92 167.03 122.5 154.8C126.51 150.16 131.83 145.92 137.67 141.73C138.5 141.13 139.35 140.53 140.2 139.94C145.43 129.51 152.84 126.34 163.52 123.06C164.4 122.41 165.2 121.73 165.99 121.03C178.22 109.42 189.85 96.7201 206.78 92.4901C221.59 88.2601 236.92 85.8801 251.32 81.4601C256.12 79.9901 260.81 78.2901 265.35 76.2601C274.46 73.4601 282.93 67.1101 290.24 60.8701" stroke="#5594D2" stroke-linecap="round" stroke-linejoin="round"/>
<path d="M57.79 323.71C59.04 288.9 82.97 264.96 102.27 239.29C104.72 234.02 106.68 228.54 108.49 223.05C110.31 217.56 112.08 212.06 113.65 206.72C118.08 191.64 112.65 166.89 124.94 155.28C130.03 150.47 135.57 145.98 141.24 141.52C142.05 140.88 142.86 140.25 143.61 139.58C146.47 130.57 152.82 125.29 162.85 123.9C163.76 123.29 164.56 122.61 165.32 121.91C183.98 98.2799 210.59 89.9299 238.53 84.1399C244.12 82.9799 249.76 81.9199 255.4 80.8699C269.15 77.6999 281.84 70.2899 291.86 60.3799" stroke="#5594D2" stroke-linecap="round" stroke-linejoin="round"/>
<path d="M59.0601 324.5C59.0401 303.85 70.2501 285.16 81.4701 267.96C91.1901 252.25 103.91 241.04 109.22 224.26C111.27 218.7 113.29 213.1 115.19 207.64C120.31 192.92 116.19 167.08 127.57 155.73C131.85 151.47 136.42 147.36 141.11 143.31C141.89 142.63 142.68 141.96 143.46 141.28C145.5 135.93 148.11 132.19 151.55 129.36C154.99 126.53 159.28 124.58 164.68 122.82C176.09 111.54 187.73 99.9099 202.53 93.5599C218.39 87.7399 235.58 85.6299 251.58 81.4099C256.91 80.0099 262.11 78.3699 267.09 76.3599C276.57 72.4099 286.09 67.1199 293.49 59.9299" stroke="#5594D2" stroke-linecap="round" stroke-linejoin="round"/>
<path d="M60.3501 325.31C63.5201 293.38 82.2201 267.21 101.67 241.78C105.41 236.54 106.91 230.56 109.47 225.09C111.72 219.48 113.98 213.88 116.17 208.3C122.13 193.15 119.76 167.94 130.54 155.91C134.55 151.43 138.91 147.11 143.42 142.83C144.17 142.12 144.92 141.4 145.58 140.64C147.54 130.57 154.95 126.34 164.05 123.63C164.89 122.95 165.64 122.23 166.4 121.52C180.34 107.3 194.09 94.61 213.12 90.38C223.34 88.26 233.57 86.5 243.42 84.18C248.35 83.02 253.18 81.72 257.87 80.16C271.29 75.57 285.04 69.22 295.07 59.79" stroke="#5594D2" stroke-linecap="round" stroke-linejoin="round"/>
<path d="M61.6599 326.19C62.7799 301.61 78.4799 282.91 89.6999 262.72C96.4299 250.01 105.41 238.04 110.24 224.89C111.57 221.61 112.93 218.33 114.28 215.06C115.64 211.79 116.99 208.52 118.31 205.24C124.27 190.47 123.47 168.17 133.18 156.02C136.25 152.18 139.6 148.44 143.11 144.77C143.81 144.04 144.52 143.3 145.24 142.57C146.92 137.1 149.35 133.04 152.63 129.94C155.91 126.85 160.06 124.72 165.17 123.1C185.74 94.9401 217.81 90.2501 249.35 82.7401C255.66 81.2401 261.95 79.6201 268.12 77.7801C279.75 74.5101 287.15 64.9901 296.74 59.3501" stroke="#5594D2" stroke-linecap="round" stroke-linejoin="round"/>
<path d="M62.99 327.17C76.98 291.89 98.67 261.22 111.24 226.33C112.58 222.89 113.95 219.46 115.3 216.04C116.65 212.62 117.99 209.2 119.26 205.78C124.9 190.61 126.42 168.69 135.77 155.88C138.68 151.89 141.9 148.01 145.29 144.19C145.97 143.43 146.66 142.67 147.26 141.86C147.54 131.63 156 128.45 164.63 123.99C165.44 123.29 166.17 122.56 166.91 121.83C179.27 109.42 193.01 95.67 210.99 91.44C221.92 88.62 232.85 86.5 243.37 83.97C248.63 82.7 253.79 81.33 258.8 79.72C273.38 75.58 287.13 69.23 298.44 58.96" stroke="#5594D2" stroke-linecap="round" stroke-linejoin="round"/>
<path d="M64.33 328.31C64.27 322.55 67.26 316.56 70.25 312.08C89.69 285.16 103.16 258.23 113.31 228.67C114.61 225.04 115.94 221.41 117.22 217.78C118.5 214.15 119.71 210.51 120.78 206.89C125.44 191.02 128.94 169.1 138.14 155.59C140.39 152.29 142.83 149.06 145.41 145.88C146.06 145.09 146.71 144.29 147.37 143.51C147.98 137.57 150.4 133.81 153.85 130.81C157.3 127.82 161.76 125.6 166.47 122.75C186.83 94.01 221.07 90.69 252.73 81.81C259.06 80.03 265.29 78.07 271.3 75.8C281.86 72.4 289.27 62.88 300.26 58.52" stroke="#5594D2" stroke-linecap="round" stroke-linejoin="round"/>
<path d="M65.6499 329.7C65.7599 327.04 66.5099 323.3 68.0099 320.3C87.4499 290.39 112.88 267.95 117.54 231.73C118.55 227.9 119.59 224.05 120.57 220.21C121.55 216.36 122.48 212.51 123.25 208.68C126.75 191.37 130.76 169.84 140.27 155.17C142.47 151.77 144.87 148.45 147.41 145.18C148.04 144.36 148.69 143.55 149.22 142.68C149.43 137.16 151.39 133.61 154.41 130.84C157.44 128.08 161.53 126.11 166.02 123.76C187.72 97.7899 220.5 85.0999 254.35 81.9199C259.37 81.6599 263.87 80.4099 268.04 78.5899C280.79 73.4599 289.25 62.8799 302.16 58.1299" stroke="#5594D2" stroke-linecap="round" stroke-linejoin="round"/>
<path d="M66.8999 331.43C68.0099 329.28 68.0099 326.29 68.7499 324.05C85.9499 294.88 120.35 279.93 124.25 243.9C124.81 240.33 125.28 236.74 125.68 233.13C126.47 225.91 126.98 218.62 127.14 211.27C127.55 192.52 131.84 170.9 142.24 154.62C144.26 151.47 146.42 148.37 148.69 145.31C149.26 144.55 149.82 143.78 150.28 142.96C149.96 136.77 152.18 133.41 155.5 130.8C158.82 128.19 163.23 126.33 167.31 123.15C178.2 110.48 190.89 99.9001 205.7 94.6201C217.33 90.3901 229.32 87.4501 241.08 84.3501C246.96 82.8001 252.78 81.2101 258.47 79.4001C274.44 73.4601 291.37 70.2901 304.24 57.6001" stroke="#5594D2" stroke-linecap="round" stroke-linejoin="round"/>
<path d="M68.05 333.61C74.74 310.59 97.1701 297.13 115.12 282.17C124.09 274.69 130.08 264.22 133.43 253.93C134.53 250.75 135.41 247.43 136.03 244.05C137.88 233.92 137.49 223.31 134.2 214.65C127.61 197.32 132.29 172.15 144.05 153.96C145.59 151.57 147.21 149.21 148.88 146.88C149.44 146.1 150 145.32 150.57 144.55C151.16 139.15 153.05 135.13 155.92 131.93C158.8 128.72 162.67 126.33 167.23 124.18C186.06 100.44 213.44 89.8701 242.24 83.9501C248 82.7701 253.82 81.7701 259.63 80.8901C277.61 77.7201 289.24 62.9101 306.48 57.1001" stroke="#5594D2" stroke-linecap="round" stroke-linejoin="round"/>
<path d="M69.0601 336.39C78.4801 309.84 105.4 297.87 126.34 281.42C130.83 276.93 135.31 270.95 138.81 264.74C140.63 261.48 142.35 258.13 144 254.67C149.93 242.2 154.03 226.5 144.65 214.46C130.28 196 133.44 172.24 145.75 153.2C147.33 150.76 148.97 148.35 150.67 145.97C151.24 145.18 151.77 144.36 152.2 143.49C152.82 132.69 158.11 128.46 167.2 125.15C178.21 109.42 194.07 100.96 210.99 92.5C223.15 87.21 236.11 85.63 248.8 83.25C255.15 82.06 261.43 80.67 267.51 78.6C282.91 75.58 293.48 60.77 308.97 56.45" stroke="#5594D2" stroke-linecap="round" stroke-linejoin="round"/>
<path d="M69.8999 339.95C75.4799 327.79 84.4599 317.32 94.9299 308.34C112.88 294.88 133.82 287.4 146.47 268.41C148.69 265.27 150.82 262.02 152.87 258.65C161.99 243.56 164.59 226.98 156.75 215.27C144.56 197.06 131.95 175.72 147.59 152.11C148.71 150.42 149.85 148.75 151.02 147.1C151.6 146.27 152.19 145.45 152.69 144.58C152.83 133.75 160.23 129.52 167.91 125.6C187.95 100.66 216.26 90.6301 246.56 83.0801C252.62 81.5701 258.76 80.1601 264.93 78.7801C279.73 76.6401 290.31 65.0001 303 57.6001C305.12 56.5401 308.29 56.5401 311.65 55.8101" stroke="#5594D2" stroke-linecap="round" stroke-linejoin="round"/>
<path d="M70.6101 344.4C79.9701 312.82 115.87 305.35 138.61 286.84C141.29 284.69 143.76 282.46 146.18 280.15C148.53 277.84 150.82 275.46 153.04 272.98C155.56 270.02 157.97 266.94 160.25 263.71C169.32 250.9 176.55 229.63 167.4 216.33C152.47 194.63 129.77 180.48 149.23 151.22C149.8 150.37 150.37 149.52 150.95 148.67C151.53 147.82 152.12 146.99 152.7 146.14C153.87 136.9 158.1 129.5 167.77 126.71C187.92 102.59 215.51 91.23 245.57 83.83C251.58 82.35 257.69 81.03 263.86 79.81C279.72 77.68 291.36 66.05 305.11 56.53C308.28 55.47 311.46 57.59 314.54 55.21" stroke="#5594D2" stroke-linecap="round" stroke-linejoin="round"/>
<path d="M71.23 349.34C79.97 315.82 121.1 312.08 144.67 294.5C147.51 292.52 150.25 290.46 152.91 288.3C155.58 286.14 158.18 283.88 160.7 281.51C163.4 278.57 165.81 275.4 167.94 272.05C178.54 255.36 182.14 234.37 176.9 219.57C169.06 197.44 129.36 183.2 151.06 150.54C151.63 149.68 152.22 148.82 152.81 147.96C153.4 147.11 153.99 146.25 154.54 145.37C154.21 140.08 155.9 136.37 158.78 133.41C161.66 130.44 165.72 128.21 170.15 125.87C187.51 104.31 212.1 95.2499 237.53 87.2099C243.89 85.1999 250.3 83.2599 256.66 81.1999C264.93 79.7899 272.34 75.5599 280.8 73.4399C294.55 69.2099 303.01 55.4599 317.7 54.6499" stroke="#5594D2" stroke-linecap="round" stroke-linejoin="round"/>
<path d="M71.8101 354.59C81.4701 320.3 122.6 318.06 147.57 299.43C150.57 297.47 153.51 295.44 156.4 293.32C159.29 291.2 162.12 289 164.9 286.69C167.79 283.77 170.35 280.67 172.62 277.42C183.95 261.22 188.21 241.23 184.65 224.4C179.31 199.19 131.77 182.59 153.1 150.14C153.63 149.34 154.16 148.54 154.71 147.74C155.36 142.86 156.74 138.31 159.26 134.67C161.78 131.03 165.44 128.31 170.65 127.11C191.06 104.44 217.96 91.8501 247.17 84.6101C253.01 83.1601 258.95 81.9301 264.94 80.8901C280.8 77.6901 292.44 67.1201 306.19 58.6601C310.42 56.5401 315.71 53.3701 321.15 54.1301" stroke="#5594D2" stroke-linecap="round" stroke-linejoin="round"/>
<path d="M72.3501 359.91C82.2101 325.54 122.6 321.05 148.63 303.56C151.76 301.56 154.81 299.52 157.81 297.4C160.8 295.29 163.73 293.11 166.59 290.84C169.57 288.01 172.23 285.06 174.67 281.95C186.79 266.51 193.46 247.12 191.32 229.82C188.66 208.29 176.1 201.97 159.83 185.65C149.58 175.37 147.53 162.55 155.39 150C155.9 149.19 156.42 148.38 156.94 147.57C156.46 141.72 158.34 137.73 161.42 134.59C164.49 131.45 168.76 129.15 173.1 126.72C187.73 111.54 204.65 99.9 223.69 93.56C229.15 91.8 234.56 90.06 239.89 88.29C245.22 86.51 250.48 84.69 255.65 82.75C274.45 74.52 293.49 68.18 312.53 56.54C316.76 54.42 320.99 54.42 324.87 53.72" stroke="#5594D2" stroke-linecap="round" stroke-linejoin="round"/>
<path d="M72.8101 365.08C82.2201 330.03 124.1 328.54 150.16 309.06C154.15 306.71 158.1 304.31 162 301.81C165.3 299.8 168.55 297.75 171.76 295.65C175.5 292.92 178.63 290.07 181.34 287.05C194.79 272.03 197.54 252.93 197.54 235.37C197.54 215.21 185.64 199.93 168.16 185.22C156.32 175.25 149.02 165.05 158.05 150.17C158.55 149.34 159.06 148.51 159.45 147.63C158.12 136.92 165.52 132.69 173.81 128.71C191.55 109.51 214.39 98.8801 238.29 89.8501C244.27 87.5901 250.31 85.4401 256.36 83.2701C277.63 77.7001 295.61 66.0601 315.7 55.4901C319.93 53.3701 324.16 55.4901 328.87 53.6201" stroke="#5594D2" stroke-linecap="round" stroke-linejoin="round"/>
<path d="M73.1201 369.92C82.2201 333.02 127.09 327.04 153.34 305.41C156.89 303.13 160.38 300.86 163.86 298.57C167.32 296.29 170.77 293.98 174.2 291.64C177.93 288.6 181.33 285.39 184.37 281.87C193.45 271.34 199.2 258.1 199.92 239.24C200.52 223.59 191.16 196.76 176.63 185.14C164.91 175.77 152.86 168.28 160.21 152.46C160.48 151.87 160.78 151.28 161.11 150.67C160.68 144.85 162.05 140.36 164.8 136.78C167.56 133.2 171.7 130.53 176.88 128.48C196.11 108.02 221.79 98.38 247.74 88.28C254.23 85.75 260.73 83.2 267.16 80.5C281.87 74.53 296.67 68.19 310.42 58.67C317.82 53.38 325.23 52.32 333.24 53.8" stroke="#5594D2" stroke-linecap="round" stroke-linejoin="round"/>
<path d="M73.3 374.38C83.71 346.48 114.37 336.75 139.66 325.79C144.03 323.69 148.3 321.53 152.42 319.24C156.51 316.95 160.45 314.52 164.14 311.87C167.55 309.98 170.95 308.09 174.33 306.21C178.5 303.86 182.63 301.48 186.72 299.06C191.6 296.04 196 292.79 199.71 289.22C210.82 278.52 215.57 264.98 207.61 246.55C203.91 237.97 204.43 224.05 200.95 213.97C197.46 203.88 192.76 194.9 185.26 187.22C175.7 177.43 155.41 169.63 163.35 153.41C163.61 152.89 163.89 152.35 164.21 151.81C164.34 145.95 165.72 141.69 168.28 138.35C192.42 117.76 219.21 100.37 248.89 89.03C254.83 86.76 260.88 84.73 267.05 83.02C292.44 75.57 310.42 51.25 337.97 51.5" stroke="#5594D2" stroke-linecap="round" stroke-linejoin="round"/>
<path d="M73.47 378.5C74.81 373.28 76.89 368.79 79.56 364.88C84.89 357.05 92.55 351.5 101.13 347.02C105.42 344.78 109.95 342.81 114.53 340.95C128.5 335.76 142.25 330.47 154.7 324.36C159 322.41 163.13 320.36 167 318.13C170.85 316.5 174.67 314.93 178.48 313.4C182.29 311.87 186.09 310.39 189.89 308.93C193.95 306.92 197.59 304.57 200.82 301.95C216.92 288.86 222.52 268.88 215.7 250.75C208.61 231.89 207.01 208.22 192.5 189.24C185.33 179.86 163.85 169.49 167.45 156.13C167.69 155.24 168.04 154.34 168.51 153.42C168.07 147.82 169.43 143.69 172.09 140.27C193.1 119.67 218.74 107.4 245.09 94.64C250.36 92.09 255.66 89.52 260.95 86.85C289.25 78.75 312.52 49.14 343.18 54.74" stroke="#5594D2" stroke-linecap="round" stroke-linejoin="round"/>
<path d="M73.5601 381.37C75.8801 376.17 78.8101 371.63 82.2101 367.62C85.6101 363.61 89.4801 360.12 93.6901 357.01C97.9001 353.9 102.45 351.18 107.19 348.7C127.44 339.99 146.48 331.53 166.18 322.55C170.89 320.19 175.41 317.69 179.64 314.96C184.89 313.04 189.57 311.35 193.91 309.51C215.45 300.49 229.97 286.79 223.07 255.46C220.86 245.44 211.76 235.65 208.68 224.67C205.2 212.26 206.32 204.09 199.12 191.84C193.79 182.77 174.31 170.38 173.32 159.06C173.25 158.25 173.27 157.45 173.39 156.64C173.16 151.54 173.84 147.14 175.86 143.44C195.06 125.7 216.97 112.74 239.79 100.74C245.49 97.7399 251.25 94.7999 257.04 91.8599C289.27 82.9899 314.65 47.0299 348.69 55.9099" stroke="#5594D2" stroke-linecap="round" stroke-linejoin="round"/>
<path d="M73.9099 385.04C104.17 353.73 149.65 343.15 187.53 323.21C190.87 321.87 194.25 320.59 197.65 319.38C201.72 317.69 205.34 315.58 208.53 313.14C224.5 300.91 229.92 280.19 228.78 260.67C228.1 249.01 219.3 239.78 214.41 228.95C209.3 217.61 209.92 206.67 204.66 195.3C201.03 187.46 188.85 176.4 183.09 166.49C182.57 165.59 182.1 164.7 181.67 163.79C178.88 157.75 178.55 152.36 180.17 147.78C184.55 137.96 195.13 132.68 203.59 127.39C219.45 116.68 235.02 107.01 250.51 97.4999C255.67 94.3299 260.83 91.1699 265.99 88.0099C294.54 75.5699 322.04 49.1299 354.35 57.9299" stroke="#5594D2" stroke-linecap="round" stroke-linejoin="round"/>
<path d="M74.3999 388.72C110.52 356.9 157.06 344.21 199.14 325.68C203.22 324.3 206.82 322.42 210.02 320.14C226.01 308.77 231.85 287.44 233.08 269.04C233.84 257.67 229.14 247.1 223.29 236.93C215.69 223.72 213.86 214.02 210.12 200.13C208.89 195.56 205.57 190.24 201.84 184.7C179.27 162.31 185.62 136.92 213.12 124.23C224.49 119.47 235 113.72 245.03 107.37C250.05 104.2 254.94 100.88 259.76 97.45C289.26 79.8 323.11 44.9 360.42 60.36" stroke="#5594D2" stroke-linecap="round" stroke-linejoin="round"/>
<path d="M75.01 392.39C115.81 362.19 164.46 346.33 211.11 326.59C215.12 323.82 218.5 320.33 221.35 316.37C229.9 304.5 233.7 288.44 235.74 275.16C239.58 250.02 220.62 228.01 214.39 203.79C213.27 199.43 210.62 194.21 207.6 188.69C201.48 177.11 193.02 167.59 191.97 153.84C191.97 145.38 200.43 140.09 206.78 136.92C223.83 126.21 239.4 114.91 254.65 103.46C259.73 99.6401 264.78 95.8101 269.84 92.0201C297.73 74.5201 331.58 45.9701 366.53 63.2701" stroke="#5594D2" stroke-linecap="round" stroke-linejoin="round"/>
<path d="M75.77 396.1C120.04 372.77 164.46 351.62 211.4 333.22C215.45 330.53 218.86 327.03 221.75 323.01C230.43 310.97 234.5 294.34 237.29 281.49C243.38 253.48 225.32 232.79 217.8 207.19C216.69 203.41 214.8 198.94 212.68 194.16C197.25 172.88 193.02 145.38 220.51 131.63C232.14 125.99 242.84 119.53 252.98 112.47C258.05 108.94 262.99 105.27 267.84 101.48C297.72 78.7399 333.68 41.7199 373 66.2099" stroke="#5594D2" stroke-linecap="round" stroke-linejoin="round"/>
<path d="M76.77 400.31C121.1 381.23 160.23 351.61 211 342.09C215.23 341.03 216.29 336.8 219.41 335.04C222.65 331.42 225.4 327 227.75 322.19C234.79 307.73 238.15 289.63 239.76 278.28C243.8 249.88 226.56 233.6 219.22 206.56C218.32 203.23 216.83 199.05 215.17 194.45C206.76 174.99 196.19 151.72 219.46 139.03C231.8 132.68 243.2 125.63 253.97 117.96C259.36 114.12 264.59 110.13 269.7 105.99C299.84 79.81 338.98 41.74 380.08 69.19" stroke="#5594D2" stroke-linecap="round" stroke-linejoin="round"/>
<path d="M77.9399 405.07C123.22 386.51 172.93 364.3 218.57 341.46C221.86 337.9 224.66 333.54 227.08 328.76C234.31 314.42 238.09 296.27 240.38 284.72C242.71 272.99 243.92 260.12 240.96 247.82C237.55 233.65 226 223.85 222.37 210.17C220.89 204.61 218.22 194.88 216.43 185.02C200.42 152.77 239.55 139.02 261.76 123.16C267.31 119.46 272.14 115.36 276.52 111.04C299.84 77.68 343.2 47.01 383.4 70.5" stroke="#5594D2" stroke-linecap="round" stroke-linejoin="round"/>
<path d="M79.1799 409.89C127.45 386.52 188.79 372.77 226.08 334.25C228.27 329.97 230.15 325.37 231.81 320.7C235.11 311.36 237.51 301.75 239.64 293.84C243.69 278.79 246.37 261.92 242.82 246.22C240.21 234.67 232.62 226.26 228.46 215.58C226.05 209.4 223.65 200.17 222.46 190.79C222.64 181.34 214.18 170.76 222.64 164.42C234.27 154.9 245.79 145.97 256.88 136.8C262.42 132.22 267.86 127.58 273.15 122.77C288.22 107.3 304.09 92.5 318.89 76.63C335.81 56.53 366.48 61.82 387.82 72.1" stroke="#5594D2" stroke-linecap="round" stroke-linejoin="round"/>
<path d="M80.51 414.42C132.74 403.44 182.45 373.82 223.56 341.59C227.42 334.97 230.43 327.44 232.92 320C235.41 312.56 237.38 305.2 239.11 298.94C247.08 269.99 247.02 247.8 233.86 219.33C230.83 212.78 228.25 204.12 227.2 195.31C226.87 186.61 220.52 177.09 227.93 171.8C244.19 159.9 258.67 147.85 271.86 135.04C276.26 130.77 280.51 126.42 284.65 121.99C311.48 86.1301 348.5 43.8301 395.9 75.5401" stroke="#5594D2" stroke-linecap="round" stroke-linejoin="round"/>
<path d="M81.9399 418.59C138.02 416.13 190.9 378.06 226.38 337.36C228.74 332.16 230.74 326.71 232.53 321.41C234.32 316.11 235.89 310.98 237.36 306.41C246.23 278.9 249.87 251.86 238.74 224.27C236.12 217.79 233.52 211.33 231.83 204.94C230.03 195.08 223.69 182.39 232.15 176.04C246.03 165.33 259.76 155.22 272.51 144.42C276.76 140.82 280.9 137.14 284.9 133.34C303.01 117.87 313.59 96.7199 330.51 79.7999C350.61 59.6999 380.22 66.0499 403.94 79.0599" stroke="#5594D2" stroke-linecap="round" stroke-linejoin="round"/>
<path d="M83.4099 422.37C139.08 423.53 188.78 381.23 223.95 340.58C226.4 335.99 228.5 331.21 230.35 326.53C232.2 321.85 233.82 317.26 235.3 313.04C244.47 286.85 251.31 257.15 242.47 228.81C240.75 223.29 238.89 218.4 237.32 213.85C237.01 212.94 236.71 212.04 236.42 211.16C233.21 201.43 228.97 187.68 237.44 181.33C251.72 169.03 265.4 157.19 278.32 144.84C282.63 140.72 286.85 136.55 290.98 132.3C320.99 96.7201 364.35 43.8401 411.64 85.1101" stroke="#5594D2" stroke-linecap="round" stroke-linejoin="round"/>
<path d="M84.8799 425.78C106 427.32 125.89 421.88 144.25 412.35C150.37 409.17 156.32 405.54 162.1 401.56C167.88 397.58 173.46 393.25 178.86 388.68C195.06 374.97 209.53 359.09 221.98 343.91C224.51 339.33 226.68 334.57 228.63 329.88C230.58 325.19 232.31 320.56 233.94 316.26C243.63 290.72 250.97 260.35 244.67 232.33C244.07 229.68 243.28 226.91 242.41 224.08C242.12 223.13 241.82 222.18 241.52 221.22C240.76 217.6 239.33 213.36 237.94 208.92C235.32 200.38 231.09 190.86 236.37 184.51C248.36 170.41 265.51 163.83 280.95 154.43C284.81 152.08 288.56 149.55 292.09 146.69C296.65 142.21 300.88 137.98 305.11 133.75C320.97 112.6 331.55 87.21 356.93 76.64C373.59 69.5 390.84 71.88 405.55 80.27C410.45 83.07 415.08 86.53 419.3 90.53" stroke="#5594D2" stroke-linecap="round" stroke-linejoin="round"/>
<path d="M86.3401 428.84C93.4601 430.29 100.48 430.65 107.39 430.09C114.29 429.53 121.07 428.04 127.69 425.8C141.19 421.42 153.88 414.02 165.44 404.59C171.36 399.98 177.08 394.94 182.56 389.65C199.02 373.78 213.41 355.58 225.01 339.56C227.23 334.32 229.16 329.02 230.88 324.06C232.59 319.1 234.09 314.49 235.39 310.62C243.73 285.95 250.2 259 245.62 232.16C245.31 230.33 244.91 228.44 244.46 226.51C244.24 225.54 244 224.56 243.74 223.56C242.7 216.73 239.01 207.23 238.16 198.77C237.44 192.98 238.5 185.58 243.79 183.46C262.83 177.11 278.59 167.94 291.7 156.34C296.07 152.47 300.14 148.33 303.94 143.95C317.82 127.41 326.28 107.31 340.03 89.3299C356.78 66.4099 390.41 70.6699 413.94 85.3499C418.65 88.2899 422.95 91.6399 426.67 95.2699" stroke="#5594D2" stroke-linecap="round" stroke-linejoin="round"/>
<path d="M87.8101 431.62C94.8801 432.99 101.84 433.33 108.67 432.79C115.5 432.25 122.19 430.83 128.71 428.69C142.25 423.54 153.88 417.19 165.67 408.26C171.43 403.79 176.96 398.89 182.24 393.71C198.09 378.21 211.68 360.21 222.25 343.79C224.54 338.72 226.53 333.6 228.28 328.84C230.03 324.08 231.56 319.66 232.89 316.01C241.97 291.04 248.98 264.13 246.91 236.64C246.7 233.9 246.29 230.96 245.82 227.93C245.66 226.92 245.5 225.89 245.32 224.83C245.61 218.42 242.59 209.67 241.93 201.98C241.68 198.27 240.62 192.98 243.79 191.93C258.86 183.2 274.97 175.37 289.51 166.14C294.35 163.06 299.02 159.83 303.42 156.36C328.41 142.21 328.41 110.48 346.39 92.51C361.9 75.59 384.94 73.71 405.54 81.4C410.69 83.32 415.69 85.84 420.39 88.88C425.09 91.91 429.54 95.45 433.66 99.4" stroke="#5594D2" stroke-linecap="round" stroke-linejoin="round"/>
<path d="M89.3301 434.32C96.6101 435.09 103.8 434.85 110.86 433.75C117.93 432.66 124.86 430.7 131.63 428.03C146.48 423.53 158.11 414.01 169.83 404.53C175.74 399.55 181.39 394.15 186.73 388.46C202.77 371.41 216.08 351.8 225.48 333.51C227.29 328.9 228.87 324.59 230.28 320.94C239.93 295.93 247.44 268.86 247.46 241.18C247.46 239.34 247.38 237.4 247.26 235.38C247.2 234.37 247.13 233.35 247.05 232.31C247.53 225.33 244.86 215.76 244.7 207.35C244.84 203.55 243.78 199.32 246.95 196.15C263.87 182.75 284.08 178.29 301.95 169.28C306.42 167.03 310.73 164.49 314.82 161.46C335.8 148.56 336.85 123.17 348.49 103.08C361.18 79.81 386.56 77.23 409.15 85.02C414.8 86.97 420.27 89.57 425.36 92.65C430.46 95.73 435.31 99.27 439.67 103.11" stroke="#5594D2" stroke-linecap="round" stroke-linejoin="round"/>
<path d="M90.9099 437.12C97.8599 437.41 104.63 436.8 111.22 435.42C117.81 434.05 124.22 431.92 130.44 429.17C144.36 424.59 153.88 415.07 165.48 406.16C170.93 401.42 176.17 396.32 181.21 391C196.33 375.04 209.58 357.05 220.79 340.64C223.67 334.83 226.19 328.88 228.6 322.98C238.57 298.61 246.14 271.49 247.89 244.19C248.01 242.29 248.07 240.3 248.1 238.25C248.12 237.22 248.13 236.18 248.13 235.13C248.59 228.33 246.98 219.64 247.51 211.94C248 207.78 249.06 202.49 251.18 201.43C268.63 192.7 286.68 184.43 302.86 174.36C308.26 171.01 313.44 167.45 318.34 163.62C341.08 148.55 348.48 122.11 362.23 99.8999C371.75 85.6199 386.56 82.1799 401.76 84.8499C406.83 85.7399 411.94 87.3099 416.91 89.3799C426.75 93.5499 436.27 98.8399 444.81 106.26" stroke="#5594D2" stroke-linecap="round" stroke-linejoin="round"/>
<path d="M92.54 440C99.94 438.87 107.2 437.1 114.27 434.77C121.35 432.44 128.24 429.55 134.93 426.17C148.6 420.36 160.23 410.85 172.27 400.51C177.99 395.43 183.44 390.01 188.58 384.31C204.01 367.22 216.72 347.62 225.87 327.46C227.63 323.37 229.32 319.21 230.92 314.99C238.94 293.88 244.88 271.26 247.83 248.4C248.28 244.88 248.59 241.05 248.95 237.1C249.04 236.11 249.13 235.12 249.23 234.12C250.21 228.35 249.38 221.5 250.09 215.48C250.13 210.95 251.18 206.72 254.36 205.67C274.19 197.3 294.76 189.11 312.61 178.12C317.07 175.37 321.37 172.45 325.44 169.31C345.31 154.91 355.89 131.64 365.41 109.43C372.28 93.0401 387.36 87.4801 403.45 88.8001C408.82 89.2401 414.3 90.4401 419.63 92.2501C429.92 95.6801 440.5 100.97 449.32 109.1" stroke="#5594D2" stroke-linecap="round" stroke-linejoin="round"/>
<path d="M94.1899 442.91C101.39 441.94 108.35 440.27 115.07 437.99C121.79 435.72 128.27 432.84 134.51 429.47C146.48 422.47 159.17 414.01 169.1 403.93C174.39 398.93 179.43 393.63 184.24 388.13C198.66 371.65 210.94 353.38 221.05 336.04C222.47 333.04 223.83 329.99 225.18 326.9C235.56 303.1 243.29 276.85 248.12 250.51C248.77 246.99 249.32 243.24 249.94 239.43C250.1 238.48 250.26 237.52 250.43 236.56C252.39 231.68 251.52 225.02 252 219.3C253.3 207.77 267.05 202.48 275.51 200.37C291.37 196.14 308.56 192.97 323.1 186.36C327.95 184.16 332.5 181.57 336.62 178.43C341.7 174.93 345.44 170.64 348.33 165.9C354.82 155.95 354.82 145.37 358.64 136.31C360.04 131.33 361.6 126.45 363.8 121.9C366 117.35 368.84 113.12 372.81 109.42C379.86 101.66 388.56 97.2 397.83 95.43C402.47 94.55 407.25 94.34 412.04 94.73C426.75 96.73 442.61 100.96 454.12 112.1" stroke="#5594D2" stroke-linecap="round" stroke-linejoin="round"/>
<path d="M95.53 445.37C102.56 443.3 109.42 440.78 116.1 437.85C122.77 434.93 129.26 431.59 135.54 427.9C148.59 420.36 160.23 411.9 170.63 401.67C176.02 396.68 181.16 391.42 186.05 385.92C200.7 369.44 213.01 350.86 222.46 331.38C224.28 327.39 226.02 323.33 227.69 319.22C236.04 298.64 242.58 276.65 247.83 254.71C248.9 250.25 249.88 245.41 251.07 240.56C251.31 239.59 251.55 238.62 251.8 237.63C252.55 231.7 252.93 225.56 254.82 220.55C258.59 212.02 267.05 206.73 274.46 206.73C295.48 207.52 313.08 202.96 327.43 194.11C332.21 191.16 336.64 187.73 340.73 183.84C344.37 180.4 347.55 176.67 350.37 172.74C366.48 149.62 366.48 114.72 395.04 102.03C417.25 92.51 440.52 105.2 459.52 115.47" stroke="#5594D2" stroke-linecap="round" stroke-linejoin="round"/>
<path d="M96.79 447.68C103.53 445.19 110.16 442.34 116.64 439.14C123.12 435.95 129.46 432.42 135.62 428.58C148.6 421.42 159.18 410.84 170.32 401.94C175.68 396.94 180.82 391.68 185.7 386.19C200.33 369.73 212.65 351.17 221.9 331.24C224.58 325.43 227.1 319.48 229.48 313.43C236.61 295.27 242.52 276.21 248.1 257.3C249.12 253.83 250.14 250.14 251.26 246.4C251.54 245.47 251.83 244.53 252.12 243.59C253.77 238.37 254.33 231.8 256.39 226.22C258.45 220.64 262 216.06 269.64 214.82C285.03 204.6 304.07 212 321.16 209.84C326.3 209.25 330.73 207.84 334.6 205.78C340.45 202.05 345.04 197.46 348.79 192.32C364.36 171.81 362.25 145.37 378.11 124.22C399.26 97.7801 438.4 100.95 462.76 119.29" stroke="#5594D2" stroke-linecap="round" stroke-linejoin="round"/>
<path d="M98.05 449.99C104.5 446.95 110.86 443.66 117.09 440.13C123.32 436.61 129.43 432.84 135.39 428.85C147.55 420.36 158.12 411.9 169.1 402.15C174.34 397.26 179.38 392.15 184.18 386.84C198.58 370.92 210.88 353.15 220.31 333.76C223.05 328.02 225.62 322.13 228.07 316.15C235.41 298.21 241.68 279.42 248.12 260.96C249.3 257.59 250.5 253.97 251.83 250.29C252.16 249.37 252.5 248.45 252.85 247.53C255.19 241.4 256.09 234.9 258.37 229.72C260.65 224.53 264.29 220.66 272.11 219.8C280.79 214.13 291.37 216.25 301.05 217.29C308.08 218.47 315.16 219.95 322.37 219.65C327.64 219.43 332.27 217.48 336.28 215.15C344.25 212.01 350.6 205.66 354.87 197.2C360.12 185.57 365.41 172.88 368.58 160.19C374.93 140.09 385.5 121.06 406.65 113.65C426.75 106.25 447.9 113.65 465.35 123.69" stroke="#5594D2" stroke-linecap="round" stroke-linejoin="round"/>
<path d="M99.3401 452.32C105.36 449.12 111.36 445.74 117.29 442.18C123.22 438.62 129.08 434.89 134.84 430.96C145.42 422.48 157.05 414.02 167.73 405.07C172.88 400.36 177.84 395.45 182.57 390.35C196.75 375.05 208.83 357.93 217.68 338.86C219.62 335.01 221.46 331.09 223.24 327.13C232.13 307.32 239.58 286.23 247.72 265.81C249.35 261.73 251.11 257.11 253.13 252.46C253.54 251.53 253.95 250.6 254.38 249.66C258.59 239.51 259.64 224.7 274.17 225.09C274.99 224.69 275.82 224.34 276.69 224.03C278.42 223.42 280.24 223.01 282.18 222.83C295.84 221.56 309.81 229.43 324.07 229.37C329.54 229.35 334.29 227.9 338.4 225.71C344.5 223.62 348.87 219.13 352.4 213.85C363.3 195.09 369.64 174.99 377.05 154.9C391.86 118.94 436.28 105.19 467.59 128.76" stroke="#5594D2" stroke-linecap="round" stroke-linejoin="round"/>
<path d="M100.66 454.67C106.78 450.65 112.95 446.55 119.1 442.35C136.96 429.88 154.94 416.14 172.11 400.89C177.55 395.78 182.77 390.49 187.71 384.97C202.53 368.42 214.83 349.87 222.85 328.52C225.07 323.71 227.22 318.82 229.32 313.9C235.63 299.13 241.59 284 248.18 269.36C250.07 265.17 252.19 260.27 254.67 255.36C254.92 254.87 255.17 254.38 255.42 253.89C260.69 243.74 261.75 227.88 277.58 230.54C278.51 230.25 279.47 230.02 280.46 229.86C281.45 229.7 282.46 229.61 283.5 229.59C297.37 229.34 310.22 238.59 324.4 239.87C329.89 240.37 334.66 239.41 338.8 237.56C344.26 235.28 348.49 232.11 352.72 226.82C367.53 205.67 372.81 181.34 383.39 158.07C398.2 126.34 441.56 113.65 470.53 134.8" stroke="#5594D2" stroke-linecap="round" stroke-linejoin="round"/>
<path d="M102.02 457.07C107.58 452.61 113.25 448.19 118.97 443.74C135.91 430.93 153.89 417.18 169.76 402.06C175.12 397.1 180.31 391.99 185.27 386.68C200.15 370.77 212.91 353.08 221.67 332.39C223.95 327.62 226.17 322.79 228.36 317.92C234.93 303.32 241.22 288.4 248.25 274.04C250.13 270.19 252.38 265.48 255.03 260.72C255.56 259.77 256.11 258.81 256.67 257.86C262.83 247.95 263.89 232.08 278.87 237.05C279.84 236.89 280.79 236.74 281.76 236.66C282.73 236.58 283.72 236.59 284.74 236.66C298.98 237.81 311.07 248.18 325.35 250.34C330.95 251.19 335.77 250.53 339.97 248.83C344.16 247.13 347.73 244.39 350.83 241.07C367.54 218.33 377.06 192.95 385.52 166.51C390.81 152.76 402.44 143.24 415.13 136.9C434.17 129.5 454.26 129.5 473.3 137.96C473.3 137.96 473.3 140.08 474.63 141.94" stroke="#5594D2" stroke-linecap="round" stroke-linejoin="round"/>
<path d="M103.5 459.62C125.33 442.57 148.6 425.65 169.67 406.78C174.92 402.03 179.99 397.13 184.82 392.02C199.31 376.71 211.58 359.48 219.54 338.82C221.95 334.02 224.29 329.17 226.6 324.28C233.53 309.61 240.25 294.66 247.85 280.38C250.56 275.29 253.9 268.82 257.92 262.75C258.23 262.28 258.55 261.81 258.87 261.35C262.8 253.26 267.03 239.51 280.05 244.28C281.02 244.16 281.99 244.07 282.96 244.05C283.94 244.04 284.93 244.1 285.95 244.25C293.34 245.34 300.99 249.44 308.38 253.64C315.77 257.84 322.66 261.73 329.25 262.82C334.05 263.62 338.29 262.95 342.14 261.06C345.99 259.17 349.45 256.05 352.68 251.94C356.92 245.84 361.16 239.5 364.36 233.14C377.01 206.71 383.36 178.15 403.45 155.94C421.43 134.79 458.45 130.56 480.04 150.46" stroke="#5594D2" stroke-linecap="round" stroke-linejoin="round"/>
<path d="M105.19 462.41C106.29 458.43 108.41 455.26 110.52 453.15C132.73 436.23 156 419.31 177.42 400.26C182.51 395.48 187.39 390.54 191.98 385.38C205.76 369.9 216.97 352.39 223.74 331.27C225.54 327.2 227.46 322.83 229.51 318.32C237.71 300.28 247.87 279.91 259.13 266.5C259.81 265.69 260.5 264.91 261.18 264.13C265.99 256.43 272.34 247.97 282.58 251.67C283.33 251.67 284.07 251.72 284.81 251.8C285.55 251.88 286.3 252.02 287.04 252.2C294.24 253.98 300.91 258.47 307.65 262.53C314.39 266.59 321.14 270.16 328.86 269.91C334.02 269.74 338.53 268.78 342.58 267.09C346.63 265.39 350.22 262.95 353.51 259.81C356.92 255.96 359.89 251.89 362.52 247.66C383.38 215.18 386.55 167.59 425.68 151.72C444.72 144.32 471.16 141.14 485.93 159.31" stroke="#5594D2" stroke-linecap="round" stroke-linejoin="round"/>
<path d="M107.14 465.54C127.44 437.29 161.28 421.42 184.29 395.92C188.72 391.52 192.97 386.98 196.97 382.25C208.99 368.09 218.81 352.28 224.78 333.65C227.28 328.27 230.03 322.48 232.97 316.59C241.79 298.93 252.41 280.43 263.75 269.53C264.47 268.84 265.2 268.17 265.93 267.52C271.28 262.77 276.56 258.54 283.71 259.88C284.46 259.92 285.21 260 285.96 260.14C286.71 260.28 287.46 260.47 288.21 260.71C296.75 263.49 303 268.16 309.57 271.68C316.14 275.2 322.79 277.51 332.84 275.68C337.77 274.78 342.2 273.37 346.21 271.49C350.22 269.61 353.83 267.26 357.1 264.47C363.29 258.53 369.64 252.19 372.91 243.71C385.51 213.05 395.03 176.04 427.81 161.23C446.85 152.77 477.52 145.37 491.09 167.29" stroke="#5594D2" stroke-linecap="round" stroke-linejoin="round"/>
<path d="M109.44 469.13C133.79 441.52 164.46 421.42 189.39 395.1C194.37 389.9 199.09 384.51 203.46 378.83C212.18 367.47 219.45 354.96 224.38 340.56C227.04 335.13 229.94 329.29 233.06 323.35C248.63 293.68 269.54 261.83 289.49 269.8C308.69 277.47 315.03 285.32 337.07 279.69C346.54 277.27 354.28 273.75 360.58 268.75C364.56 264.94 367.91 260.7 370.83 256.16C386.57 230 391.86 198.27 416.19 177.11C437.34 160.19 475.42 149.61 495.44 174.44" stroke="#5594D2" stroke-linecap="round" stroke-linejoin="round"/>
<path d="M110.45 470.95C141.19 448.91 169.75 424.59 194.3 395.84C198.32 391.08 202.19 386.21 205.87 381.19C216.91 366.16 226.29 349.87 233.29 331.9C236.05 326.97 238.95 321.99 241.95 317.16C256.98 293 274.68 272.48 290.48 279.61C299.64 283.74 308.26 285.26 317.13 285.35C325.53 285.77 335.11 284.1 345.24 282.53C355.04 281.01 361.79 277.39 366.94 272.06C369.86 268.58 372.38 264.91 374.63 261.1C389.74 234.23 395.03 201.44 422.53 182.41C441.04 170.07 469.83 160.67 489.1 171.88C492.95 174.12 496.43 177.19 499.36 181.22" stroke="#5594D2" stroke-linecap="round" stroke-linejoin="round"/>
<path d="M111.27 471.53C152.83 451.04 185.61 416.13 211.04 379.18C215.33 372.87 219.4 366.43 223.26 359.87C227.12 353.31 230.76 346.64 234.19 339.89C236.99 335.17 239.93 330.4 242.96 325.78C258.08 302.67 275.51 283.12 290.05 289.8C296.88 292.94 307.04 292.29 317.48 290.63C327.42 289.84 339.15 286.79 346.61 285.41C356.9 284.26 363.49 280.75 368.41 275.35C385.51 245.84 391.86 209.88 423.59 190.85C442.98 179.39 471.18 167.93 491.72 178.43C495.83 180.53 499.64 183.51 503.07 187.56" stroke="#5594D2" stroke-linecap="round" stroke-linejoin="round"/>
<path d="M112.18 472.18C152.83 452.09 187.73 422.48 213.5 385.29C217.89 379.27 222.04 373.08 225.93 366.74C229.82 360.4 233.45 353.91 236.81 347.29C240.64 341.4 244.69 335.46 248.92 329.87C261.57 313.09 275.76 299.46 289.32 300.21C297.67 300.67 307.46 298.32 317.56 295.65C327.15 294.19 338.57 290.86 347.66 289.11C357.53 288.23 364.41 284.98 369.54 279.79C372.91 274.66 375.8 269.15 378.48 263.47C388.68 241.61 396.09 216.23 418.3 202.48C430.46 194.55 447.12 185.82 463.42 182.3C468.85 181.13 474.25 180.53 479.42 180.73C490.21 181.32 499.73 185.55 506.7 193.38" stroke="#5594D2" stroke-linecap="round" stroke-linejoin="round"/>
<path d="M113.12 472.91C149.65 460.55 179.27 434.11 202.33 404.85C206.44 399.89 210.41 394.9 214.27 389.83C225.85 374.72 236.48 358.97 246.49 343.54C250.34 338.37 254.35 333.41 258.72 328.82C267.46 319.64 277.63 311.93 290.67 306.94C300.2 303.3 309.79 300.4 319.52 298.17C328.82 297.85 339.62 295.4 349.23 293.34C360.45 292.21 367.36 289.2 372.27 283.94C375.84 278.91 378.66 273.56 381.14 268.03C388.28 241.26 404.3 218.23 426.71 203.97C432.31 200.41 438.32 197.39 444.69 195C464.83 190.85 495.51 177.1 510.77 199.18" stroke="#5594D2" stroke-linecap="round" stroke-linejoin="round"/>
<path d="M114.04 473.63C152.83 456.32 186.68 426.71 213.36 394.29C218.07 388.86 222.64 383.34 227.06 377.73C231.49 372.13 235.77 366.45 239.92 360.71C243.76 355.79 247.54 350.95 251.42 346.27C262.98 332.21 275.49 319.55 292.15 311.38C301.62 306.74 311.17 303.71 321.07 301.69C330.96 299.67 341.55 299.42 352.05 298.07C363.64 297.43 370.85 294.7 375.82 289.48C380.79 284.25 383.56 276.51 386.41 265.74C388.93 256.29 392.96 247.52 398.2 239.68C400.82 235.76 403.73 232.07 406.91 228.64C434.16 205.66 482.82 176.05 515.16 204.57" stroke="#5594D2" stroke-linecap="round" stroke-linejoin="round"/>
<path d="M115.08 474.55C152.83 451.03 188.79 423.53 219.87 390.52C225.02 385.12 229.99 379.53 234.74 373.75C239.48 367.96 244.01 361.97 248.27 355.74C251.63 351.83 254.99 347.97 258.44 344.23C268.77 333 279.87 322.78 293.35 315.1C302.74 309.75 312.66 306.65 322.91 305.02C333.15 303.4 343.84 303.51 354.41 303.87C366.43 304.55 374.21 302.48 379.53 297.42C382.72 294.38 385.03 290.27 386.85 285.02C388.11 279.72 389.38 274.36 390.88 269.09C400.34 228.91 441.59 206.7 480.72 199.3C494.47 196.13 510.33 198.24 520.32 209.7" stroke="#5594D2" stroke-linecap="round" stroke-linejoin="round"/>
<path d="M115.28 474.29C156 454.21 190.9 423.54 221.95 390.17C227.12 384.68 232.16 379.09 237.07 373.44C241.98 367.79 246.77 362.07 251.42 356.32C254.72 352.62 258.03 348.96 261.39 345.41C271.47 334.76 282.05 325.13 294.35 318.49C314.15 307.79 336.6 307.09 360.05 312.61C369.28 314.78 375.93 313.09 380.83 309.12C385.73 305.16 388.89 298.93 391.12 292.04C396.08 272.29 398.2 250.08 415.12 237.39C446.85 213.06 488.1 191.91 525.21 213.59" stroke="#5594D2" stroke-linecap="round" stroke-linejoin="round"/>
<path d="M115.43 473.97C153.89 456.33 186.67 427.77 216.78 396.86C221.81 391.81 226.78 386.71 231.68 381.56C236.58 376.43 241.43 371.24 246.23 366.04C250.19 361.81 254.08 357.53 257.99 353.33C269.67 340.72 281.69 328.78 295.62 321.84C316.56 311.4 338.25 315.1 362.21 321.18C375.38 324.52 383.87 320.06 389.56 312.17C390.13 311.38 390.67 310.56 391.19 309.71C392.92 305.09 396.1 300.86 396.1 296.63C402.45 234.23 474.37 201.44 529.37 216.24" stroke="#5594D2" stroke-linecap="round" stroke-linejoin="round"/>
<path d="M115.58 473.65C156 454.2 187.73 424.59 220.27 394.81C225.62 389.87 230.93 384.91 236.21 379.95C241.5 375 246.76 370.05 252.02 365.13C255.68 361.34 259.28 357.43 262.9 353.59C273.74 342.06 284.78 331.09 297.92 325.58C308.74 321.05 319.72 321.17 330.97 323.54C342.22 325.9 353.21 327.99 364.58 329.91C372.08 331.17 378.19 330.48 383.23 328.2C388.27 325.92 392.25 322.06 395.47 316.99C405.6 250.09 469.06 214.13 533.11 218.57" stroke="#5594D2" stroke-linecap="round" stroke-linejoin="round"/>
<path d="M115.77 473.41C157.05 456.33 188.78 423.54 223.52 395.71C229.14 390.85 234.75 386 240.37 381.18C245.99 376.37 251.61 371.6 257.26 366.9C260.9 363.52 264.33 360.01 267.73 356.53C277.91 346.07 287.78 335.81 301.6 329.9C323.39 320.57 347.75 334.89 370.33 339.11C378.42 340.62 384.79 339.4 389.9 336.38C395.01 333.36 398.86 328.55 401.9 322.86C410.9 255.37 477.53 232.1 535.62 221.8" stroke="#5594D2" stroke-linecap="round" stroke-linejoin="round"/>
<path d="M116.07 473.28C163.41 455.26 199.37 419.3 237.53 387.88C242.34 383.98 247.16 380.12 252.01 376.34C256.86 372.55 261.75 368.84 266.68 365.23C271.04 361.13 275.29 356.83 279.56 352.78C288.1 344.68 296.71 337.61 306.3 335.22C324.75 330.61 351.19 343.11 372.95 347.33C382.35 349.16 389.65 347.33 395.45 343.23C401.25 339.13 405.55 332.77 409 325.53C419.36 262.77 483.87 250.08 534.64 231.04C536.76 229.98 538.87 226.81 536.44 223.52" stroke="#5594D2" stroke-linecap="round" stroke-linejoin="round"/>
<path d="M116.5 473.34C166.58 458.43 201.48 419.3 241.94 389.81C247.04 386.15 252.22 382.62 257.5 379.26C262.78 375.9 268.17 372.73 273.7 369.79C277.89 366.2 281.92 362.3 285.95 358.61C294.01 351.24 302.05 344.74 311.32 343.37C320.47 342.08 331.66 344.48 343.03 347.54C354.39 350.6 365.95 354.26 375.87 355.29C386.41 356.38 394.37 354.47 400.78 349.76C404.54 347.38 407.71 344.2 409.83 341.03C424.64 313.53 435.21 283.92 465.88 269.11C489.15 257.48 536.74 256.42 536.55 223.79" stroke="#5594D2" stroke-linecap="round" stroke-linejoin="round"/>
<path d="M117.11 473.63C165.52 469.01 194.07 420.36 235.67 398.95C240.41 396.15 245.28 393.56 250.31 391.22C255.34 388.89 260.55 386.81 265.96 385.04C270.86 383.75 276.09 382.63 280.8 380.95C285.51 379.27 289.72 377.01 292.54 373.45C298.23 366.27 306.51 354.12 316.55 352.95C326.24 356.72 338.13 360.19 348.59 356.43C359.48 359.02 370.22 362.14 379.73 363.07C390.11 364.08 398.02 362.23 404.53 357.69C407.78 355.42 410.68 352.49 413.37 348.91C432.04 298.73 476.46 278.63 521.94 257.48C532.52 252.19 540.98 238.44 536.82 224.4" stroke="#5594D2" stroke-linecap="round" stroke-linejoin="round"/>
<path d="M117.97 474.21C164.46 469.01 194.07 427.76 233.55 406.14C239.58 402.72 245.77 399.66 252.23 397.05C258.68 394.46 265.4 392.32 272.47 390.73C277.19 389.78 282.49 389.25 287.32 388.18C292.15 387.11 296.49 385.5 299.28 382.38C305.22 375.72 312.83 363.79 322.5 362.38C332.12 360.98 342.89 363.82 353.24 364.83C363.74 367.05 374.12 369.86 383.26 370.83C393.92 371.95 401.95 369.98 408.63 365.26C411.97 362.9 414.98 359.86 417.82 356.18C428.88 337.87 439.46 320.95 456.38 308.25C488.11 284.98 539.93 272.29 537.46 226.1" stroke="#5594D2" stroke-linecap="round" stroke-linejoin="round"/>
<path d="M119.09 475.1C170.81 472.18 202.54 425.65 246.96 404.52C251.72 402.39 256.48 400.53 261.32 399.17C266.16 397.81 271.09 396.94 276.19 396.79C280.42 396.34 286.2 396.18 291.72 395.4C297.24 394.62 302.49 393.21 305.67 390.24C311.8 384.52 319.38 372.68 328.92 371.4C341.63 369.69 355.6 373.04 368.82 376.15C375.43 377.7 381.85 379.19 387.83 379.96C396.94 381.54 405.61 379.34 412.95 374.62C416.62 372.26 419.95 369.26 422.84 365.79C444.75 320.94 495.52 308.25 528.3 275.46C535.7 268.06 533.59 246.9 538.24 231.68" stroke="#5594D2" stroke-linecap="round" stroke-linejoin="round"/>
<path d="M120.42 476.28C139.08 480.65 156 470.07 171.87 461.61C203.6 443.63 227.92 416.13 263.1 406.34C268.82 404.63 274.7 403.34 280.78 402.57C285.22 402.37 291.26 402.55 297.06 402.09C302.86 401.63 308.42 400.52 311.92 397.73C318.46 392.51 325.59 385.75 335.42 382.48C342.57 380.1 349.7 379.24 356.97 380.54C364.25 381.84 371.53 383.78 378.5 385.39C383.19 386.5 387.73 387.45 392.11 388.02C401.7 389.68 410.23 387.15 417.29 382.1C420.82 379.57 423.99 376.41 426.73 372.84C443.68 336.81 477.52 314.6 514.54 300.85C540.98 291.33 530.4 267.01 533.19 247.37" stroke="#5594D2" stroke-linecap="round" stroke-linejoin="round"/>
<path d="M121.97 477.74C165.52 482.76 197.25 445.75 233.21 425.65C243.79 420.36 253.31 414.02 264.78 410.77C270.92 409.03 277.23 408.07 283.8 408.2C288.88 408.03 295.45 408.63 301.77 408.54C308.08 408.45 314.14 407.68 318.19 404.77C324.66 403.47 332.76 388.02 341.93 387.11C350.7 386.25 360 387.6 369.3 389.46C373.95 390.39 378.62 391.47 383.26 392.5C400.63 399.77 413.62 394.25 423.85 383.81C427.26 380.33 430.36 376.3 433.22 372.02C448.96 329.39 490.21 316.7 529.34 302.95C544.15 297.66 532.51 279.68 531.22 267.26" stroke="#5594D2" stroke-linecap="round" stroke-linejoin="round"/>
<path d="M123.72 479.47C142.25 481.7 161.29 477.47 178.21 467.95C209.94 449.97 235.32 421.41 270.86 414.63C276.52 413.64 282.28 413.26 287.99 413.57C293.2 413.59 300.01 414.54 306.6 414.8C313.19 415.06 319.55 414.64 323.85 411.9C330.9 407.4 339.17 401.4 348.05 394.34C352.06 393.92 356.2 394.06 360.42 394.5C364.64 394.95 368.94 395.7 373.26 396.53C391.89 405.53 408.31 401.8 421.44 391.71C425.82 388.35 429.82 384.27 433.43 379.73C448.96 333.63 492.33 316.71 538.86 305.07C544.15 304.01 539.92 293.44 536.86 288.23" stroke="#5594D2" stroke-linecap="round" stroke-linejoin="round"/>
<path d="M125.93 481.99C169.75 492.28 202.54 455.26 237.44 435.17C251.19 427.77 266 421.42 282.04 419.27C287.88 418.34 293.73 418.91 299.56 419.71C305.39 420.51 311.19 421.54 316.92 421.52C320.74 421.51 324.36 423.77 327.99 428.03C332.23 429.76 336.49 423.25 340.52 414.49C344.55 405.73 348.9 402.18 353.72 401.59C357.27 401.16 361.02 401.21 364.89 401.52C368.76 401.83 372.75 402.4 376.77 403.01C395.9 411.02 411.82 406.43 424.32 395.74C428.49 392.18 432.27 387.94 435.67 383.27C452.14 335.76 499.74 312.49 548.39 311.44C547.33 310.38 546.27 308.27 546.11 307.46" stroke="#5594D2" stroke-linecap="round" stroke-linejoin="round"/>
<path d="M127.94 484.33C160.23 494.39 189.84 470.07 217.34 452.09C240.61 438.34 263.88 422.48 291.71 424.69C296.34 424.85 300.99 425.31 305.71 426.01C314.06 425.76 322.98 434.09 332.68 439.13C337.07 433.91 341.03 423.88 345.1 417.13C349.35 413.33 353.79 409.83 358.72 409C362.03 408.44 365.54 408.35 369.16 408.5C372.8 408.68 376.55 409.1 380.34 409.57C400.67 416.54 415.7 410.3 427.32 398.37C431.2 394.39 434.69 389.78 437.89 384.82C450.03 364.3 456.37 339.98 479.64 331.51C499.74 324.11 537.81 307.18 550.49 321.78" stroke="#5594D2" stroke-linecap="round" stroke-linejoin="round"/>
<path d="M129.68 486.38C166.58 498.63 199.37 465.84 230.04 448.92C250.14 437.29 271.29 428.82 294.29 430.51C299.04 431 304.01 432.22 308.99 433.42C313.97 434.63 318.96 435.83 323.77 436.3C333.38 437.25 342.29 436.34 348.71 424.63C353.14 420.75 357.71 417.21 362.62 416.4C367.2 415.65 372.42 415.65 377.86 415.92C383.16 417.71 388.17 418.67 392.9 418.9C397.63 419.14 402.09 418.66 406.29 417.57C415.01 416.01 422.49 411.53 428.38 404.61C431.57 401.53 434.52 398.07 437.24 394.33C441.32 388.73 444.89 382.5 448.06 376.04C459.54 329.38 508.19 323.03 548.38 319.86C551.55 319.86 548.38 325.15 549.07 328.01" stroke="#5594D2" stroke-linecap="round" stroke-linejoin="round"/>
<path d="M131.19 488.14C158.11 495.46 183.5 484.88 205.71 471.13C233.21 453.15 260.71 430.94 294.08 435.69C299.07 436.94 304.22 438.82 309.37 440.55C314.52 442.28 319.66 443.88 324.65 444.56C334.62 445.93 343.97 443.69 351.43 431.72C356.01 427.71 360.7 424.12 365.66 423.3C368.73 422.79 372.11 422.6 375.67 422.59C395.58 429.49 419.51 425 433.12 407.01C436.46 403.13 439.52 398.83 442.38 394.27C445.6 389.14 448.56 383.69 451.42 378.14C460.61 344.21 493.4 330.46 526.18 329.4C534.64 329.4 543.1 327.28 550.51 323.05C549.45 326.22 548.39 330.45 547.23 333.36" stroke="#5594D2" stroke-linecap="round" stroke-linejoin="round"/>
<path d="M132.54 489.67C148.6 494.4 165.52 493.34 180.33 486.99C219.46 467.95 258.6 428.82 303.79 447.87C308.05 449.31 312.26 450.75 316.4 451.87C324.68 454.1 332.67 455.01 340.24 451.93C350.71 447.44 356.69 433.98 368.32 430.46C371.35 429.94 374.67 429.72 378.19 429.67C400.06 432.49 429.23 434.73 439.37 410.15C441.79 406.11 443.88 401.84 445.82 397.45C448.72 390.87 451.28 384.03 454.27 377.39C466.95 338.92 509.26 339.98 543.1 332.58C545.22 331.52 549.45 330.46 549.45 326.23C548.39 329.4 547.33 332.58 545.89 336.21" stroke="#5594D2" stroke-linecap="round" stroke-linejoin="round"/>
<path d="M133.75 491.02C145.43 495.45 158.12 495.45 169.76 491.22C212.07 477.47 253.31 435.17 299.87 453.66C305.01 456.05 310.05 458.8 315.12 461.32C320.19 463.84 325.28 466.13 330.52 467.63C337.25 469.13 342.32 464.87 347.35 458.28C352.4 452.11 357.45 444.44 364.18 439.96C365.68 438.46 368.67 438.46 370.84 437.72C396.33 437.72 432.23 443.7 443.5 414.59C445.2 411.05 446.75 407.49 448.22 403.92C450.97 397.22 453.39 390.45 456.12 383.89C465.9 338.92 515.61 350.55 547.34 333.63C548.4 332.57 548.4 329.4 549.46 327.28C549.46 331.51 546.29 333.63 545.12 337.73" stroke="#5594D2" stroke-linecap="round" stroke-linejoin="round"/>
<path d="M134.85 492.23C149.66 499.68 167.64 495.45 182.44 490.16C222.63 476.41 269.17 433.05 310.7 470.36C315.73 473.7 320.78 476.98 326.02 479.59C333.5 483.33 339.76 481.16 345.46 471.74C351.26 464.82 356.68 455.66 362.66 450.43C365.65 448.19 368.83 446.5 372.26 445.42C407.53 451.93 447.91 441.46 454.28 401.76C455.93 397.41 457.5 393.02 459.21 388.72C467.99 348.44 511.35 354.78 540.97 339.98C543.09 338.92 546.26 335.75 548.37 331.52C546.25 333.64 545.2 335.75 544.67 338.53" stroke="#5594D2" stroke-linecap="round" stroke-linejoin="round"/>
<path d="M135.88 493.36C146.48 496.52 158.12 499.69 169.75 496.52C221.57 480.66 278.69 424.6 318.54 487.09C322.98 491.24 327.86 493.33 332.47 493.05C337.07 492.77 341.4 490.13 344.72 484.85C347.24 482.33 349.58 479.51 351.87 476.62C354.16 473.73 356.39 470.74 358.69 467.89C374.63 442.98 405.3 455.69 429.23 445.22C444.94 438.49 454.66 422.78 457.28 407.21C458.43 403.71 459.62 400.17 460.93 396.68C463.55 389.68 466.67 382.83 470.99 376.69C482.81 353.76 510.31 359.04 530.4 350.58C536.75 348.46 544.15 343.18 546.26 335.77C545.2 336.83 545.2 337.89 544.35 339.17" stroke="#5594D2" stroke-linecap="round" stroke-linejoin="round"/>
<path d="M136.88 494.44C178.21 514.5 213.11 476.42 250.13 463.73C278.69 453.15 293.49 478.54 312.75 493.82C318.17 497.66 323.84 501.58 329.6 502.29C335.36 503.01 341.2 500.52 346.96 491.57C350.7 487.83 354.2 483.76 357.72 479.73C373.14 454.92 402.31 455.67 429.23 449.69C446.43 444.45 456.9 429.5 460.48 412.96C462.11 408.69 463.79 404.29 465.6 399.95C467.41 395.61 469.36 391.32 471.6 387.28C475.41 381.23 479.64 373.83 485.99 369.6C506.09 357.97 537.81 364.31 545.22 337.87C545.22 338.93 544.16 338.93 544.15 339.55" stroke="#5594D2" stroke-linecap="round" stroke-linejoin="round"/>
<path d="M137.88 495.52C152.83 503.91 170.81 502.86 185.61 496.51C225.8 480.65 291.37 439.4 309.35 506.03C310.41 508.15 314.64 511.32 319.28 510.26C327.12 512.51 333.45 507.49 338.92 503.23C344.38 498.97 349.03 493.23 353.67 487.28C355.99 484.3 358.3 481.28 360.72 478.36C366.4 472.11 370.88 464.64 379.11 462.39C415.76 454.16 462.12 452.67 468.78 407.72C470.53 403.28 472.3 398.84 474.3 394.64C481.75 368.53 511.36 373.82 529.34 360.07C536.74 354.78 540.97 346.32 545.2 336.8C545.2 337.86 544.14 338.92 543.98 339.81" stroke="#5594D2" stroke-linecap="round" stroke-linejoin="round"/>
<path d="M138.93 496.65C180.32 515.55 221.57 477.47 263.88 474.3C286.09 472.18 298.78 494.4 306.55 511.09C310.31 517.75 320.04 518.48 326.77 514.74C336.12 507.88 343.65 499.21 351.13 490.65C353.63 487.8 356.12 484.95 358.67 482.19C364.91 473.61 373.88 466.13 383.61 463.88C415.02 454.91 456.9 456.4 468.92 420.56C470.25 417.65 471.63 414.67 473.09 411.68C476.75 404.22 480.85 396.65 486.2 390.38C495.5 379.1 510.31 379.1 521.94 369.58C531.46 361.12 539.92 351.6 544.15 338.91C544.15 338.91 544.15 339.97 543.9 339.97" stroke="#5594D2" stroke-linecap="round" stroke-linejoin="round"/>
<path d="M140.08 497.87C168.7 509.2 197.25 492.28 225.81 484.88C254.37 477.48 296.67 478.53 303.02 515.55C303.02 517.67 306.19 518.72 308.03 518.65C317.55 520.98 325.19 518.47 332.06 513.86C338.93 509.24 344.92 499.38 351.18 491.57C354.31 487.66 357.5 483.8 360.87 480.33C382.11 454.93 415.77 464.65 443.44 456.42C462.14 451.18 466.62 430.24 476.52 415.94C479.31 411.86 482.16 407.91 485.16 404.12C487.41 401.28 489.75 398.54 492.2 395.92C512.43 380.17 536.75 365.37 544.15 338.92C544.15 338.92 544.15 339.98 543.83 340.12" stroke="#5594D2" stroke-linecap="round" stroke-linejoin="round"/>
<path d="M141.36 499.21C150.71 502.86 161.29 504.97 170.81 501.8C215.23 491.22 272.34 470.07 303.01 520.84C304.07 522.96 308.3 522.96 311.72 524.01C316.3 524.48 321.16 523.36 325.28 520.74C334.01 514.51 341.4 506.88 348.6 498.98C351 496.38 353.37 493.77 355.77 491.21C365.67 480.36 376.89 467.65 391.1 466.9C429.24 464.66 469.63 460.17 479.98 418.06C481.84 415.01 483.84 412.06 486.08 409.32C489.07 405.58 492.44 402.59 496.08 399.88C499.73 397.17 503.65 394.74 507.77 392.12C524.07 377.02 532.53 356.93 543.79 340.24" stroke="#5594D2" stroke-linecap="round" stroke-linejoin="round"/>
<path d="M142.83 500.7C180.33 512.38 216.29 486.99 254.36 492.28C274.46 494.4 288.2 511.32 304.3 522.34C311.81 528.21 319.29 526.88 326.83 521.95C334.36 517.02 341.95 508.49 349.65 500.07C353.5 495.86 357.38 491.68 361.31 488C370.15 480.35 379.12 474.36 390.34 472.12C426.99 466.88 462.88 457.91 484.05 426.86C487.23 422.66 490.18 418.09 492.8 413.04C495.79 407.06 504.77 405.56 508.51 398.83C510.38 396.21 511.51 393.22 512.72 390.09C521.95 372.77 533.59 356.91 543.7 340.37" stroke="#5594D2" stroke-linecap="round" stroke-linejoin="round"/>
<path d="M144.24 501.34C149.65 502.85 154.94 507.08 161.29 507.08C199.36 506.02 237.44 485.93 274.46 508.14C277.63 509.2 281.86 504.97 283.98 508.14C288.21 517.66 297.73 524 307.3 526.04C311.91 526.62 316.76 526.34 321.79 525.19C326.82 524.04 332.02 522.01 337.3 519.16C340.25 514.49 343.17 511.7 346.07 509.38C348.97 507.06 351.84 504.72 354.7 502.41C381.37 475.11 420.26 478.1 452.42 463.89C461.39 459.4 468.87 451.92 474.11 443.7C480.09 436.22 485.33 429.49 491.68 422.39C494.3 419.59 496.92 416.78 499.49 413.88C502.06 410.98 504.58 407.99 507.02 404.81C508.89 402.19 510.01 398.83 511.12 395.19C518.79 374.88 534.65 360.07 543.55 340.64" stroke="#5594D2" stroke-linecap="round" stroke-linejoin="round"/>
<path d="M146.25 502.84C151.77 506.03 158.11 509.2 164.46 509.2C208.88 504.97 260.71 492.28 296.7 525.66C304.68 526.93 312.2 526.63 319.43 525.09C326.63 524.62 333.63 520.7 340.42 517.09C344.95 514.68 349.41 511.93 353.81 509C366.39 500.54 377.61 487.83 392.57 486.33C431.46 481.84 468.85 466.89 487.6 431.78C490.54 425.75 495.78 422.01 500.27 417.52C504.76 413.03 507.56 407.61 509.88 401.95C512.19 396.29 514.05 390.38 516.87 384.89C525.12 369.59 534.63 354.79 544.15 339.98C544.15 339.98 543.09 341.04 543.2 341.26" stroke="#5594D2" stroke-linecap="round" stroke-linejoin="round"/>
<path d="M148.78 504.58C180.33 510.26 214.17 497.57 243.78 508.15C260.7 513.44 277.62 524.01 295.37 525.06C304.05 525.61 312.7 525.71 321.33 524.56C329.94 525.31 338.62 521.59 347.15 516.5C352.03 514.55 356.88 512.31 361.67 509.83C373.88 503.54 383.61 493.82 395.57 492.33C438.95 489.34 474.1 466.15 495.17 429.88C498.3 425.2 501.2 420.35 503.86 415.39C506.52 410.43 508.94 405.35 511.11 400.21C517.71 379.13 531.46 361.15 542.48 342.58" stroke="#5594D2" stroke-linecap="round" stroke-linejoin="round"/>
<path d="M151.95 506.55C183.5 512.37 217.34 502.86 246.96 514.49C268.11 522.95 290.32 529.3 312.33 528.38C317.1 528.04 321.89 527.37 326.67 526.41C335.18 525.64 343.66 523.01 351.93 518.79C356.66 516.91 361.33 514.82 365.93 512.6C388.09 496.8 413.52 496.8 438.94 490.82C468.85 483.34 484.56 457.17 497 431.94C499.68 427.09 502.14 422.11 504.38 417.06C506.61 412.02 508.62 406.91 510.4 401.8C512.18 396.69 513.75 391.58 515.26 386.5C523 371.7 533.57 359.01 541.33 344.57" stroke="#5594D2" stroke-linecap="round" stroke-linejoin="round"/>
<path d="M155.65 508.64C199.36 508.15 239.55 517.67 280.8 529.3C288.2 531.42 296.66 532.47 305.53 531.56C312.03 531.47 318.56 530.96 325.08 529.98C333.79 529.7 342.49 527.55 351.02 523.73C355.9 522.12 360.72 520.3 365.46 518.29C391.07 502.79 420.99 502.79 447.91 492.32C471.09 484.09 482.31 462.41 493.45 442.25C496.07 437.26 498.6 432.19 500.96 427.04C504.51 419.32 507.64 411.39 510.43 403.47C511.83 399.51 513.14 395.56 514.42 391.64C518.77 374.88 531.46 362.19 539.85 347.17" stroke="#5594D2" stroke-linecap="round" stroke-linejoin="round"/>
<path d="M159.62 510.64C196.19 514.5 232.15 513.44 267.06 529.3C275.52 533.53 286.1 532.47 296.01 533.36C304.16 533.61 312.36 533.74 320.6 533.13C328.83 533.64 337.18 532.11 345.42 528.65C350.92 527.39 356.39 525.92 361.79 524.29C415.77 506.53 483.83 495.31 501.97 431.16C504.15 426.27 506.1 421.25 507.83 416.14C509.56 411.03 511.07 405.84 512.35 400.6C513.48 381.23 528.29 367.48 536.99 351.81" stroke="#5594D2" stroke-linecap="round" stroke-linejoin="round"/>
<path d="M164.4 512.76C201.48 510.26 235.33 525.06 270.23 534.58C278.69 536.7 288.21 532.46 296.35 533.14C303.69 532.64 310.97 532.56 318.22 532.47C325.47 533.42 332.71 533.18 339.88 531.73C347.05 531.27 354.14 530.55 361.08 529.37C366.64 528.43 372.11 527.19 377.57 525.66C426.97 508.76 483.06 491.56 500.92 435.87C503.13 430.95 505.08 425.88 506.79 420.7C508.5 415.51 509.95 410.2 511.15 404.81C512.35 399.42 513.31 393.94 514.1 388.39C517.71 377 526.17 368.54 532 359.46" stroke="#5594D2" stroke-linecap="round" stroke-linejoin="round"/>
<path d="M170.12 515.04C207.82 516.61 242.72 530.36 280.8 537.76C290.32 538.82 299.84 537.76 308.16 532.81C312.37 531.01 316.67 529.33 321.54 528.95C335.41 531.97 349.21 529.7 362.82 529.51C367.36 529.45 371.87 529.24 376.41 528.82C397.07 526.7 415.02 516.23 432.22 508.01C462.13 494.55 485.32 471.36 498.39 442.97C500.59 438.19 502.64 433.32 504.5 428.32C507.29 420.82 509.63 413.04 511.59 405.09C512.57 401.11 513.47 397.09 514.3 393.04C515.6 382.28 521.95 374.88 527.47 366.42" stroke="#5594D2" stroke-linecap="round" stroke-linejoin="round"/>
<path d="M176.95 517.47C222.63 528.24 272.34 548.33 318.54 528.95C326.19 530.03 333.75 534.16 341.17 530.82C348.61 531.43 355.96 531.94 363.27 532.13C368.15 532.25 373.01 532.23 377.92 532.03C394.82 531.95 412.77 530.45 426.98 520.73C432.22 516.99 433.71 509.51 438.95 507.27C468.12 496.05 490.55 472.12 499.48 442.49C501.12 438.06 502.65 433.55 504.06 428.96C505.65 423.8 507.1 418.53 508.47 413.22C509.84 407.9 511.14 402.54 512.44 397.17C514.53 387.58 516.65 378.06 523.7 371.62" stroke="#5594D2" stroke-linecap="round" stroke-linejoin="round"/>
<path d="M184.77 520.32C225.81 538.82 272.34 545.16 314.8 529.7C322.09 530.26 329.24 530.78 336.32 531.2C343.39 531.63 350.39 531.97 357.37 532.18C362.02 532.32 366.67 532.41 371.32 532.43C388.84 531.94 408.28 536.43 422.49 528.2C455.4 507.26 492.04 485.57 499.39 445.68C500.66 441.06 501.78 436.43 502.82 431.77C505.15 421.29 507.03 410.62 509.92 400.03C510.88 396.5 511.97 392.97 513.28 389.45C515.37 384.13 518.3 378.96 521.89 373.81C521.89 373.81 521.56 375.35 521.1 375.46" stroke="#5594D2" stroke-linecap="round" stroke-linejoin="round"/>
<path d="M192.58 524.22C226.86 551.51 272.34 533.53 311.37 532.24C317.84 531.8 324.35 531.5 330.98 531.55C339.81 531.72 348.83 532.42 358.18 534.19C361.92 534.94 365.71 535.08 369.52 534.89C373.34 534.7 377.2 534.19 381.12 533.66C392.57 531.19 403.79 533.44 415.01 532.69C428.47 531.19 441.93 525.21 448.66 512.5C450.16 509.51 449.41 505.77 445.67 503.53C479.32 499.79 495.78 466.88 501.38 437.96C502.81 432.84 504.11 427.61 505.37 422.38C506.32 418.45 507.24 414.52 508.19 410.61C509.13 406.7 510.1 402.82 511.11 399C513 391.34 516.15 383.83 520.19 377.06C520.19 377.06 519.4 377.81 519.26 378.3" stroke="#5594D2" stroke-linecap="round" stroke-linejoin="round"/>
<path d="M199.15 529.19C209.94 540.93 225.81 545.16 241.67 543.05C263.88 538.82 283.98 534.59 306.4 534.88C312.33 534.97 318.27 535.17 324.23 535.31C336.16 535.61 348.2 535.69 360.42 534.94C366.78 534.57 372.95 534.01 379.22 533.89C405.29 536.43 438.2 533.44 455.4 510.26C457.64 508.02 455.4 504.28 451.66 503.53C479.33 498.29 495.78 469.88 499.48 443C500.83 437.41 502.06 431.72 503.24 425.99C504.42 420.26 505.55 414.5 506.75 408.82C507.95 403.14 509.24 397.53 510.75 392.1C512.35 387.59 515.56 384.56 517.95 380.46" stroke="#5594D2" stroke-linecap="round" stroke-linejoin="round"/>
<path d="M204.81 535.23C212.05 546.22 225.8 551.51 238.5 548.34C258.6 543.05 276.57 534.59 297.16 535.58C304.14 535.49 311 535.82 317.82 536.21C331.45 540.24 345.04 537.86 358.54 537.92C363.94 537.94 369.33 537.84 374.71 537.55C402.31 533.44 437.46 532.7 457.65 509.51C477.09 488.57 499.53 469.13 501.61 438.32C502.5 433.61 503.32 428.82 504.17 424.03C505.45 416.84 506.82 409.64 508.68 402.67C509.61 399.19 510.67 395.76 511.92 392.43C513.2 389.08 514.77 385.81 516.71 382.64" stroke="#5594D2" stroke-linecap="round" stroke-linejoin="round"/>
</g>
<defs>
<clipPath id="clip0_1040_17107">
<rect width="501" height="498.75" fill="white" transform="translate(50 51)"/>
</clipPath>
</defs>
</svg>
